<svg width="32" height="16" viewBox="0 0 32 16" fill="none" xmlns="http://www.w3.org/2000/svg">
<path d="M13.623 6.73438C13.623 7.72396 13.4375 8.66797 13.0664 9.56641C12.7018 10.4648 12.1517 11.2526 11.416 11.9297L12.7637 13.5312L9.18945 15.8359L8.34961 13.5312C8.10221 13.5833 7.85156 13.6224 7.59766 13.6484C7.35026 13.6745 7.09961 13.6875 6.8457 13.6875C6.2207 13.6875 5.62174 13.6094 5.04883 13.4531C4.47591 13.2969 3.9388 13.0788 3.4375 12.7988C2.9362 12.5124 2.48047 12.1673 2.07031 11.7637C1.66016 11.36 1.30534 10.9108 1.00586 10.416C0.712891 9.92122 0.485026 9.38737 0.322266 8.81445C0.166016 8.23503 0.0878906 7.63281 0.0878906 7.00781C0.0878906 6.38932 0.16276 5.79036 0.3125 5.21094C0.46875 4.625 0.686849 4.07487 0.966797 3.56055C1.25326 3.04622 1.59505 2.57747 1.99219 2.1543C2.39583 1.72461 2.84505 1.35677 3.33984 1.05078C3.83464 0.738281 4.36849 0.497396 4.94141 0.328125C5.51432 0.158854 6.11654 0.0742188 6.74805 0.0742188C7.75716 0.0742188 8.68164 0.227214 9.52148 0.533203C10.3678 0.839193 11.0938 1.27865 11.6992 1.85156C12.3047 2.42448 12.7767 3.12435 13.1152 3.95117C13.4538 4.77148 13.623 5.69922 13.623 6.73438ZM8.87695 7.00781C8.87695 6.70833 8.83138 6.41862 8.74023 6.13867C8.6556 5.85221 8.52865 5.60156 8.35938 5.38672C8.1901 5.16536 7.97852 4.98958 7.72461 4.85938C7.4707 4.72917 7.17773 4.66406 6.8457 4.66406C6.52018 4.66406 6.22721 4.72266 5.9668 4.83984C5.70638 4.95052 5.48177 5.10677 5.29297 5.30859C5.11068 5.51042 4.96745 5.74805 4.86328 6.02148C4.76562 6.29492 4.7168 6.59115 4.7168 6.91016C4.7168 7.20964 4.75911 7.50586 4.84375 7.79883C4.9349 8.08529 5.0651 8.3457 5.23438 8.58008C5.40365 8.80794 5.61523 8.99349 5.86914 9.13672C6.12305 9.27995 6.41602 9.35156 6.74805 9.35156C7.06706 9.35156 7.35677 9.28971 7.61719 9.16602C7.88411 9.03581 8.10872 8.86328 8.29102 8.64844C8.47982 8.43359 8.62305 8.1862 8.7207 7.90625C8.82487 7.61979 8.87695 7.32031 8.87695 7.00781ZM14.502 8.60938L14.4629 5.67969L20.7715 5.38672L20.8105 8.72656L14.502 8.60938ZM31.5234 0.0351562L31.4258 4.17578L28.5156 4.29297L27.7734 13.5508L23.6523 13.7656L23.6719 4.50781L20.7617 4.66406L20.8789 0.0546875L31.5234 0.0351562Z" fill="#1E293B"/>
</svg>
