<svg width="94" height="17" viewBox="0 0 94 17" fill="none" xmlns="http://www.w3.org/2000/svg">
<path d="M13.623 7.73438C13.623 8.72396 13.4375 9.66797 13.0664 10.5664C12.7018 11.4648 12.1517 12.2526 11.416 12.9297L12.7637 14.5312L9.18945 16.8359L8.34961 14.5312C8.10221 14.5833 7.85156 14.6224 7.59766 14.6484C7.35026 14.6745 7.09961 14.6875 6.8457 14.6875C6.2207 14.6875 5.62174 14.6094 5.04883 14.4531C4.47591 14.2969 3.9388 14.0788 3.4375 13.7988C2.9362 13.5124 2.48047 13.1673 2.07031 12.7637C1.66016 12.36 1.30534 11.9108 1.00586 11.416C0.712891 10.9212 0.485026 10.3874 0.322266 9.81445C0.166016 9.23503 0.0878906 8.63281 0.0878906 8.00781C0.0878906 7.38932 0.16276 6.79036 0.3125 6.21094C0.46875 5.625 0.686849 5.07487 0.966797 4.56055C1.25326 4.04622 1.59505 3.57747 1.99219 3.1543C2.39583 2.72461 2.84505 2.35677 3.33984 2.05078C3.83464 1.73828 4.36849 1.4974 4.94141 1.32812C5.51432 1.15885 6.11654 1.07422 6.74805 1.07422C7.75716 1.07422 8.68164 1.22721 9.52148 1.5332C10.3678 1.83919 11.0938 2.27865 11.6992 2.85156C12.3047 3.42448 12.7767 4.12435 13.1152 4.95117C13.4538 5.77148 13.623 6.69922 13.623 7.73438ZM8.87695 8.00781C8.87695 7.70833 8.83138 7.41862 8.74023 7.13867C8.6556 6.85221 8.52865 6.60156 8.35938 6.38672C8.1901 6.16536 7.97852 5.98958 7.72461 5.85938C7.4707 5.72917 7.17773 5.66406 6.8457 5.66406C6.52018 5.66406 6.22721 5.72266 5.9668 5.83984C5.70638 5.95052 5.48177 6.10677 5.29297 6.30859C5.11068 6.51042 4.96745 6.74805 4.86328 7.02148C4.76562 7.29492 4.7168 7.59115 4.7168 7.91016C4.7168 8.20964 4.75911 8.50586 4.84375 8.79883C4.9349 9.08529 5.0651 9.3457 5.23438 9.58008C5.40365 9.80794 5.61523 9.99349 5.86914 10.1367C6.12305 10.2799 6.41602 10.3516 6.74805 10.3516C7.06706 10.3516 7.35677 10.2897 7.61719 10.166C7.88411 10.0358 8.10872 9.86328 8.29102 9.64844C8.47982 9.43359 8.62305 9.1862 8.7207 8.90625C8.82487 8.61979 8.87695 8.32031 8.87695 8.00781ZM26.0059 4.14062C26.0059 4.6224 25.9831 5.15299 25.9375 5.73242C25.8919 6.31185 25.8171 6.91081 25.7129 7.5293C25.6087 8.14779 25.472 8.77604 25.3027 9.41406C25.14 10.0456 24.9349 10.6543 24.6875 11.2402C24.4401 11.8262 24.1504 12.3763 23.8184 12.8906C23.4928 13.3984 23.1152 13.8444 22.6855 14.2285C22.2624 14.6061 21.7871 14.9023 21.2598 15.1172C20.7324 15.3385 20.1465 15.4492 19.502 15.4492C18.7467 15.4492 18.0892 15.3255 17.5293 15.0781C16.9759 14.8372 16.5007 14.5117 16.1035 14.1016C15.7064 13.6849 15.3809 13.2031 15.127 12.6562C14.873 12.1029 14.6745 11.5202 14.5312 10.9082C14.388 10.2897 14.2871 9.66146 14.2285 9.02344C14.1764 8.37891 14.1504 7.76042 14.1504 7.16797C14.1504 6.25651 14.196 5.34831 14.2871 4.44336C14.3783 3.5319 14.5085 2.6237 14.6777 1.71875L19.248 1.89453C19.0723 2.91667 18.9193 3.94531 18.7891 4.98047C18.6654 6.00911 18.6035 7.04427 18.6035 8.08594C18.6035 8.19661 18.6068 8.36263 18.6133 8.58398C18.6263 8.79883 18.6458 9.04297 18.6719 9.31641C18.6979 9.58333 18.7337 9.86003 18.7793 10.1465C18.8314 10.4264 18.8997 10.6836 18.9844 10.918C19.069 11.1523 19.1699 11.3444 19.2871 11.4941C19.4108 11.6439 19.554 11.7188 19.7168 11.7188C19.9056 11.7188 20.0749 11.6309 20.2246 11.4551C20.3743 11.2728 20.5046 11.0319 20.6152 10.7324C20.7324 10.4329 20.8333 10.0879 20.918 9.69727C21.0026 9.30664 21.0742 8.89974 21.1328 8.47656C21.1914 8.05339 21.237 7.63021 21.2695 7.20703C21.3086 6.78385 21.3379 6.38997 21.3574 6.02539C21.3835 5.66081 21.3997 5.33854 21.4062 5.05859C21.4128 4.77865 21.416 4.57031 21.416 4.43359C21.416 3.92578 21.4062 3.42122 21.3867 2.91992C21.3737 2.41211 21.3509 1.90755 21.3184 1.40625H25.8887C25.9668 2.30469 26.0059 3.21615 26.0059 4.14062ZM32.0605 1.25L30.9863 14.5508L26.8652 14.7656V1.52344L32.0605 1.25ZM41.6797 4.27734L37.207 10.3125H41.5234L41.4648 14.4531L32.7539 14.8047L32.3633 10.9766L37.4609 4.33594L32.793 4.6875L32.7539 0.761719H41.5039L41.6797 4.27734ZM56.7188 1.03516L56.6211 5.17578L53.7109 5.29297L52.9688 14.5508L48.8477 14.7656L48.8672 5.50781L45.957 5.66406L46.0742 1.05469L56.7188 1.03516ZM68.9355 8.10547C68.9355 8.69792 68.8672 9.27083 68.7305 9.82422C68.5938 10.3711 68.3952 10.8854 68.1348 11.3672C67.8809 11.849 67.5684 12.2917 67.1973 12.6953C66.8327 13.0924 66.4193 13.4342 65.957 13.7207C65.5013 14.0072 65.0033 14.2318 64.4629 14.3945C63.9225 14.5508 63.3496 14.6289 62.7441 14.6289C62.1582 14.6289 61.5983 14.554 61.0645 14.4043C60.5371 14.2546 60.0423 14.0462 59.5801 13.7793C59.1178 13.5059 58.6979 13.1803 58.3203 12.8027C57.9492 12.4186 57.6302 11.9954 57.3633 11.5332C57.1029 11.0645 56.8978 10.5632 56.748 10.0293C56.6048 9.49544 56.5332 8.9388 56.5332 8.35938C56.5332 7.79297 56.6016 7.23958 56.7383 6.69922C56.875 6.15234 57.0703 5.63802 57.3242 5.15625C57.5846 4.67448 57.8971 4.23177 58.2617 3.82812C58.6263 3.42448 59.0332 3.07617 59.4824 2.7832C59.9382 2.49023 60.4297 2.26237 60.957 2.09961C61.4844 1.93685 62.041 1.85547 62.627 1.85547C63.571 1.85547 64.4303 2.00195 65.2051 2.29492C65.9863 2.58789 66.6504 3.00781 67.1973 3.55469C67.7507 4.09505 68.1771 4.7526 68.4766 5.52734C68.7826 6.29557 68.9355 7.15495 68.9355 8.10547ZM64.5996 8.35938C64.5996 8.07943 64.5573 7.80924 64.4727 7.54883C64.3945 7.2819 64.2773 7.04753 64.1211 6.8457C63.9648 6.63737 63.7695 6.47135 63.5352 6.34766C63.3073 6.21745 63.0436 6.15234 62.7441 6.15234C62.4382 6.15234 62.1647 6.20768 61.9238 6.31836C61.6829 6.42904 61.4746 6.58203 61.2988 6.77734C61.1296 6.96615 60.9993 7.19076 60.9082 7.45117C60.8171 7.70508 60.7715 7.97526 60.7715 8.26172C60.7715 8.53516 60.8105 8.80859 60.8887 9.08203C60.9668 9.35547 61.084 9.60286 61.2402 9.82422C61.3965 10.0456 61.5885 10.2246 61.8164 10.3613C62.0508 10.498 62.321 10.5664 62.627 10.5664C62.9329 10.5664 63.2064 10.5078 63.4473 10.3906C63.6947 10.2669 63.903 10.1042 64.0723 9.90234C64.2415 9.69401 64.3717 9.45638 64.4629 9.18945C64.554 8.92253 64.5996 8.64583 64.5996 8.35938ZM80.6836 7.24609C80.6836 8.15755 80.5664 8.98112 80.332 9.7168C80.0977 10.446 79.7689 11.097 79.3457 11.6699C78.929 12.2363 78.431 12.7246 77.8516 13.1348C77.2721 13.5449 76.6374 13.8835 75.9473 14.1504C75.2572 14.4108 74.5215 14.6061 73.7402 14.7363C72.9655 14.86 72.168 14.9219 71.3477 14.9219C71.0417 14.9219 70.7422 14.9154 70.4492 14.9023C70.1562 14.8828 69.8568 14.8568 69.5508 14.8242L69.8242 1.71875C70.5404 1.49089 71.276 1.33138 72.0312 1.24023C72.793 1.14258 73.5482 1.09375 74.2969 1.09375C75.2279 1.09375 76.084 1.23372 76.8652 1.51367C77.6465 1.79362 78.3203 2.19727 78.8867 2.72461C79.4531 3.25195 79.8926 3.89648 80.2051 4.6582C80.5241 5.41992 80.6836 6.28255 80.6836 7.24609ZM76.6797 7.87109C76.6862 7.51953 76.6471 7.18099 76.5625 6.85547C76.4844 6.52995 76.3509 6.24349 76.1621 5.99609C75.9798 5.74219 75.7454 5.54036 75.459 5.39062C75.1725 5.23438 74.8307 5.14974 74.4336 5.13672L74.043 11.1914C74.4336 11.1328 74.7884 11.0059 75.1074 10.8105C75.4264 10.6087 75.6999 10.3646 75.9277 10.0781C76.1621 9.78516 76.3411 9.46289 76.4648 9.11133C76.5951 8.75326 76.6667 8.38542 76.6797 8.00781V7.87109ZM93.3496 8.10547C93.3496 8.69792 93.2812 9.27083 93.1445 9.82422C93.0078 10.3711 92.8092 10.8854 92.5488 11.3672C92.2949 11.849 91.9824 12.2917 91.6113 12.6953C91.2467 13.0924 90.8333 13.4342 90.3711 13.7207C89.9154 14.0072 89.4173 14.2318 88.877 14.3945C88.3366 14.5508 87.7637 14.6289 87.1582 14.6289C86.5723 14.6289 86.0124 14.554 85.4785 14.4043C84.9512 14.2546 84.4564 14.0462 83.9941 13.7793C83.5319 13.5059 83.112 13.1803 82.7344 12.8027C82.3633 12.4186 82.0443 11.9954 81.7773 11.5332C81.5169 11.0645 81.3118 10.5632 81.1621 10.0293C81.0189 9.49544 80.9473 8.9388 80.9473 8.35938C80.9473 7.79297 81.0156 7.23958 81.1523 6.69922C81.2891 6.15234 81.4844 5.63802 81.7383 5.15625C81.9987 4.67448 82.3112 4.23177 82.6758 3.82812C83.0404 3.42448 83.4473 3.07617 83.8965 2.7832C84.3522 2.49023 84.8438 2.26237 85.3711 2.09961C85.8984 1.93685 86.4551 1.85547 87.041 1.85547C87.985 1.85547 88.8444 2.00195 89.6191 2.29492C90.4004 2.58789 91.0645 3.00781 91.6113 3.55469C92.1647 4.09505 92.5911 4.7526 92.8906 5.52734C93.1966 6.29557 93.3496 7.15495 93.3496 8.10547ZM89.0137 8.35938C89.0137 8.07943 88.9714 7.80924 88.8867 7.54883C88.8086 7.2819 88.6914 7.04753 88.5352 6.8457C88.3789 6.63737 88.1836 6.47135 87.9492 6.34766C87.7214 6.21745 87.4577 6.15234 87.1582 6.15234C86.8522 6.15234 86.5788 6.20768 86.3379 6.31836C86.097 6.42904 85.8887 6.58203 85.7129 6.77734C85.5436 6.96615 85.4134 7.19076 85.3223 7.45117C85.2311 7.70508 85.1855 7.97526 85.1855 8.26172C85.1855 8.53516 85.2246 8.80859 85.3027 9.08203C85.3809 9.35547 85.498 9.60286 85.6543 9.82422C85.8105 10.0456 86.0026 10.2246 86.2305 10.3613C86.4648 10.498 86.735 10.5664 87.041 10.5664C87.347 10.5664 87.6204 10.5078 87.8613 10.3906C88.1087 10.2669 88.3171 10.1042 88.4863 9.90234C88.6556 9.69401 88.7858 9.45638 88.877 9.18945C88.9681 8.92253 89.0137 8.64583 89.0137 8.35938Z" fill="#1E293B"/>
</svg>
